<svg width="17" height="16" viewBox="0 0 17 16" fill="none" xmlns="http://www.w3.org/2000/svg"><path fill-rule="evenodd" clip-rule="evenodd" d="M2.8758 0.906123C2.90318 0.879988 2.93181 0.855098 2.96293 0.832697C3.79933 0.290092 4.76394 0.00012207 5.83433 0.00012207C6.83503 0.00012207 7.7735 0.277647 8.57256 0.758027C8.63106 0.791628 8.79038 0.901145 8.87128 0.999461C8.09835 0.148218 5.82811 1.9764 5.82811 1.9764C5.04398 1.37032 4.32084 0.958392 3.7844 0.810296C3.33383 0.68709 3.02391 0.790384 2.8758 0.906123ZM9.74502 1.71007C9.73379 1.69697 9.72163 1.6845 9.7093 1.67187L9.70929 1.67185C9.69703 1.65929 9.68462 1.64656 9.67283 1.63291C9.47867 1.41886 9.23845 1.36783 9.02188 1.38028C8.82398 1.44375 7.91414 1.77106 6.79271 2.83013C6.79271 2.83013 7.25274 3.2774 7.78769 3.90822C8.61625 3.53878 9.53406 3.33341 10.4998 3.33341C10.5941 3.33341 10.6879 3.33537 10.7812 3.33925C10.5365 2.73288 10.1833 2.18168 9.74502 1.71007ZM6.29361 4.24389C6.4044 4.35362 6.51453 4.46407 6.62397 4.57524C4.9343 5.7846 3.83317 7.76375 3.83317 10.0001C3.83317 10.0944 3.83513 10.1882 3.839 10.2815C1.88085 9.49193 0.499765 7.57464 0.499765 5.33408C0.497276 3.97881 1.01381 2.67332 1.94107 1.68892C1.94107 1.68892 2.16884 1.42633 2.52605 1.40019C2.8758 1.42135 3.24173 1.57567 3.57529 1.77479C3.58525 1.78101 3.59396 1.78723 3.59396 1.78723L3.59894 1.78848C4.29221 2.20912 4.84608 2.81644 4.84608 2.81644C4.24118 3.39389 2.79117 5.16358 2.31197 6.34462C1.57763 8.14915 1.91244 8.9307 1.91244 8.9307C1.99583 7.94381 3.50062 6.18532 4.02586 5.62529C4.32084 5.30919 4.85231 4.77032 5.2618 4.3559V4.35714C5.58043 4.03357 5.82687 3.78716 5.82687 3.78716C5.99116 3.94521 6.14674 4.09828 6.29361 4.24389ZM4.49984 10.0001C4.49984 6.68637 7.18613 4.00008 10.4998 4.00008C13.8135 4.00008 16.4998 6.68637 16.4998 10.0001C16.4998 13.3138 13.8135 16.0001 10.4998 16.0001C7.18613 16.0001 4.49984 13.3138 4.49984 10.0001ZM6.18207 11.2387C5.84476 11.4484 5.9572 11.8468 6.67678 12.0355C7.41885 12.2662 8.22837 12.3291 9.01541 12.2033C9.04176 12.2033 9.0681 12.1961 9.08993 12.1901C9.10536 12.1859 9.11853 12.1823 9.12785 12.1823V11.4694L8.36329 11.7C8.07097 11.7839 7.77864 11.8049 7.48631 11.742C7.26144 11.6791 7.30641 11.5533 7.57625 11.4484L9.12785 10.9452V10.1694L6.96911 10.8613C6.69927 10.9452 6.42942 11.071 6.18207 11.2387ZM11.399 8.09359V10.1275C12.321 10.5468 13.0406 10.1275 13.0406 9.03714C13.0406 7.92585 12.6133 7.42262 11.3765 7.02423C10.7244 6.81456 10.0498 6.62585 9.3752 6.50004V12.5597L10.9493 13V7.90488C10.9493 7.67423 10.9493 7.50649 11.1292 7.5694C11.3765 7.6323 11.399 7.86294 11.399 8.09359ZM14.3223 10.7565C13.6702 10.5468 12.9731 10.4629 12.2985 10.5258C11.9387 10.5468 11.6014 10.6307 11.2866 10.7355L11.2191 10.7565V11.5742L12.6808 11.071C12.9731 10.9871 13.2654 10.9662 13.5578 11.0291C13.7826 11.092 13.7377 11.2178 13.4678 11.3226L11.2191 12.0984V12.8952L14.3223 11.8258C14.5472 11.742 14.7496 11.6371 14.9295 11.4694C15.0869 11.2597 15.0194 10.9662 14.3223 10.7565Z" fill="white"/></svg>